{"title":"Rahtree Reborn [Thai movie] [custom subs]","uid":5640539,"size":719436054,"categoryP":"video","categoryS":"movies","magnet":"?xt=urn:btih:b32f054b5bcd24c84e28bf57cb9c9434ff328fad&amp;dn=Rahtree+Reborn+%5BThai+movie%5D+%5Bcustom+subs%5D&amp;tr=udp%3A%2F%2Ftracker.openbittorrent.com%3A80&amp;tr=udp%3A%2F%2Fopen.demonii.com%3A1337&amp;tr=udp%3A%2F%2Ftracker.coppersurfer.tk%3A6969&amp;tr=udp%3A%2F%2Fexodus.desync.com%3A6969","seeders":2,"leechers":0,"uploader":"Redhat98","files":-1,"time":1277082191,"description":"The vengeful  female ghost, Buppah, continues to inhabit apartment 609. She shares the room with her ghost boyfriend, Ake, who has been left legless by Buppah after his transgressions in the first film. A blind  woman named Thip rents a neighboring apartment. She is due for an eye operation, but the doctor treating her tries to rape her. He is stopped by Rahtree who takes pity upon Thip. Meanwhile, a comic foursome of bank robbers have entered Rahtree's apartment and are using it as a hideout after robbing a bank but find themselves in trouble with Ake and Buppah.\n\n\nGeneral\nComplete name                    : Rahtree Reborn.avi\nFormat                           : AVI\nFormat/Info                      : Audio Video Interleave\nFile size                        : 686 MiB\nDuration                         : 1h 35mn\nOverall bit rate                 : 1 001 Kbps\n\nVideo\nID                               : 0\nFormat                           : MPEG-4 Visual\nFormat profile                   : Simple@L3\nFormat settings, BVOP            : No\nFormat settings, QPel            : No\nFormat settings, GMC             : No warppoints\nFormat settings, Matrix          : Default (H.263)\nCodec ID                         : XVID\nCodec ID/Hint                    : XviD\nDuration                         : 1h 35mn\nBit rate                         : 828 Kbps\nWidth                            : 720 pixels\nHeight                           : 384 pixels\nDisplay aspect ratio             : 1.875\nFrame rate                       : 25.000 fps\nResolution                       : 24 bits\nColorimetry                      : 4:2:0\nScan type                        : Progressive\nBits/(Pixel*Frame)               : 0.120\nStream size                      : 568 MiB (83%)\nWriting library                  : XviD 1.1.2 (UTC 2006-11-01)\n\nAudio\nID                               : 1\nFormat                           : MPEG Audio\nFormat version                   : Version 1\nFormat profile                   : Layer 3\nFormat_Settings_Mode             : Joint stereo / MS Stereo\nCodec ID                         : 55\nCodec ID/Hint                    : MP3\nDuration                         : 1h 35mn\nBit rate mode                    : Constant\nBit rate                         : 160 Kbps\nChannel(s)                       : 2 channels\nSampling rate                    : 48.0 KHz\nResolution                       : 16 bits\nStream size                      : 110 MiB (16%)\nAlignment                        : Split across interleaves\nInterleave, duration             : 24 ms (0.60 video frame)\n\nLanguage                         : Thai\nSubtitles                        : English custom","torrent":{"xt":"urn:btih:b32f054b5bcd24c84e28bf57cb9c9434ff328fad","amp;dn":"Rahtree+Reborn+%5BThai+movie%5D+%5Bcustom+subs%5D","amp;tr":["udp%3A%2F%2Ftracker.openbittorrent.com%3A80","udp%3A%2F%2Fopen.demonii.com%3A1337","udp%3A%2F%2Ftracker.coppersurfer.tk%3A6969","udp%3A%2F%2Fexodus.desync.com%3A6969"],"infoHash":"b32f054b5bcd24c84e28bf57cb9c9434ff328fad","infoHashBuffer":{"type":"Buffer","data":[179,47,5,75,91,205,36,200,78,40,191,87,203,156,148,52,255,50,143,173]},"announce":[],"urlList":[]}}